<svg id="Layer_1" data-name="Layer 1"
	xmlns="http://www.w3.org/2000/svg" viewBox="0 0 1071.8 1070.8">
	<defs>
		<style>.cls-1{fill:#131f6f;}.cls-2{fill:#fdfdfd;}.cls-3{fill:#b8bbd3;}.cls-4{fill:#b7bbd3;}.cls-5{fill:#fefefe;}.cls-6{fill:#fdfdfe;}.cls-7{fill:#fdfefe;}.cls-8{fill:#14206f;}.cls-9{fill:#141f6f;}.cls-10{fill:#fcfcfd;}.cls-11{fill:#1d255e;}.cls-12{fill:#a2a6c6;}.cls-13{fill:#0f96aa;}.cls-14,.cls-16{fill:#0f95aa;}.cls-15{fill:#79cfc7;}.cls-16{stroke:#0f95aa;stroke-miterlimit:10;stroke-width:2px;}</style>
	</defs>
	<path class="cls-1" d="M565,1070.9H555a24.2,24.2,0,0,1-16.9-10.2c-1.5-2-2.7-2-4.2,0a41.8,41.8,0,0,1-6.7,6.6c-3.3,2.8-7.5,2.3-11.2,3.6H506c-11.2-1.8-16.4-9.9-20.1-19.4-1.2-3.1-2.3-3.9-5.7-2.7-18.9,6.6-35.4-3.4-38.8-23.3-.5-2.5-.4-4.4-4.1-3.6-26.3,6-35.8-16.4-32.6-33.5a43.5,43.5,0,0,0,1-5.8c-4,.1-7.3,1.7-10.7,2.7-26.6,8.1-53.8,12.7-81.3,15.4-12.6,1.3-25.3,1.2-38,1.3-6.6.1-10.8-2.3-14.1-8.1C241,957.4,225.5,918.9,216,878a34.1,34.1,0,0,0-1.3-5.3l-.4-.4c-1.6-.4-2.3,1.1-3.1,1.9a39.9,39.9,0,0,1-10.3,7c-15.3,7.1-29.9,1.3-35.8-14.3-2.3-6.1-2.5-5.6-7.6-3.8-17.4,6.2-34.6-3.9-37.9-22.3-.7-3.7-1.7-4.9-5.4-3.7a23.8,23.8,0,0,1-8.4.8c-18.6-1.1-29.3-15.5-25-33.5a24.6,24.6,0,0,1,.9-2.9c1.2-2.9.7-4.9-2.8-5.1a4.2,4.2,0,0,1-1.5-.4c-24.5-5.8-26.5-28.9-14.8-43.8a9.3,9.3,0,0,1,1.3-1.5c2.9-2.6,2.5-4.5-.5-7.1-14.3-12.9-14.1-31.4.5-44.5,2.3-2,3.5-3.4.9-6.3-14.9-16.6-6.2-34.5,8.9-42.3a66.5,66.5,0,0,1,10.6-4c-.9-1.8-2.5-2.6-3.8-3.8A430.1,430.1,0,0,1,4,547.7c-1.8-3.1-2.3-6.6-3.9-9.7v-4c1.6-7.7,6.2-13.9,10.3-20.3a445.1,445.1,0,0,1,61.7-77.1c3.8-3.7,8.4-6.6,11.7-10.9-.8-1.8-2.5-1.5-3.8-2-7.4-2.7-13.9-6.5-18.4-13.1-6.6-9.7-5.9-20.8,1.8-30,4.1-4.9,4.1-4.9-.6-8.9-13.1-11-13.2-31.1-.2-43.3,4.1-3.8,4.1-3.9.6-8.1-5.4-6.6-8.1-14.2-7.3-22.7.9-11.4,9.6-19.8,22.4-22.1,3.6-.7,4.7-1.3,3.5-5.3-7.2-23.7,7.7-36.9,26.3-36.2,3.3.1,7.1,1.9,9.7.4s1.9-6,3.1-9.1c5.5-14.6,21.8-23.1,37.6-16.5,3.5,1.5,4.8.9,6.1-2.7,6.2-17.6,21.4-23.4,38-14.9,4.3,2.2,7.9,5.3,12.1,8.9,2.4-11.5,5-22.3,8.3-32.9a446.7,446.7,0,0,1,39.3-90.6c3.1-5.4,7.3-7.7,13.4-7.5,44.4.8,87.9,6.5,130.7,20.9-2.6-7.6-3.1-14.8-1.1-22.2,4-14.4,14.8-21.3,29.5-18.7,5.6,1,5.6,1,6.6-4.4,3.5-17.9,20.2-27.9,37.8-22.2,4.3,1.4,6.1.6,7.1-3.6a21.1,21.1,0,0,1,4.5-8.3c4.3-5.8,9.6-10.1,17.4-10h6.1C522,.3,528,3.7,532.8,9.5c2.3,3,3.9,3.2,6.4.1,4.6-5.8,10.7-9.2,18.4-9h6.1c11.6.3,17.3,8,21.6,17.3,2.7,5.6,2.4,5.6,8.8,4.1,21-5,34.1,8.1,36.5,23.6.5,3.1,1.2,4.8,5,3.9,25-5.9,34.8,16.7,31.8,33.5a28.5,28.5,0,0,1-2,6.9L680,85.4A405.7,405.7,0,0,1,760.5,71c11.4-.8,22.8-1.5,34.3-2,7.7-.3,12.3,2.7,16,9.3,20.4,37,36.5,75.5,45.5,116.9.3,1.4.2,3,1.5,4.4,2.3-1.6,4.2-3.6,6.5-5.3a37,37,0,0,1,17.5-6.8c9.6-1.1,19.4,4.6,23.9,13.9a29.2,29.2,0,0,1,2.1,5.6c.7,2.9,2.2,3.2,4.8,2.2a27.2,27.2,0,0,1,15.1-2.4c12.6,1.8,21.6,10,24.5,22.5,1.3,5.5,1.3,5.5,7.3,4.9,2-.2,4-.1,6-.1,17.1-.1,31,12,25.3,34.8-1.5,5.5-1.7,5.5,3.9,6.7,19.8,4.3,27.7,23.8,16.7,41.1a24.6,24.6,0,0,1-3.7,4.8c-2.4,2.3-1.9,3.9.6,6,6.2,5.2,10.1,11.8,10.6,20.2.7,10.4-2.9,18.9-11.4,25.2-2.6,1.9-3,3.4-.6,5.9,14.3,14.3,8,33.2-7.6,41.7a70.5,70.5,0,0,1-11,4.5c.3,2.1,1.8,2.9,3,4,30.4,27.3,55,59.2,76.1,94a40.6,40.6,0,0,1,4.5,12v3c-7.3,19.1-20.1,34.8-31.9,51-15.3,21.1-33.4,39.7-52.9,57.6a40.7,40.7,0,0,1,15.8,6.7c13.7,9.9,15.9,25.2,5.3,38.3-3.4,4.3-4.1,3.9.6,8.2,13.7,12.2,13.8,31.2.2,43.4-3.3,2.9-3.8,4.7-.7,7.9a27.9,27.9,0,0,1,7.6,16c1.7,11.6-3.2,21-13.7,26.3a34.3,34.3,0,0,1-7,2.5c-5.9,1.5-5.9,1.5-4.3,7.4,5.8,21.2-10.2,38.2-32.1,34.1-5.3-1-5.3-1-6.4,4.2-3.7,17.9-20.9,27.7-38.2,21.4-4.1-1.5-5.6-1.1-7.1,3.2-7.5,22.8-30.8,20.8-43.5,10.4-1.9-1.5-3.3-3.6-6-4.7-2.8,9.7-4.7,19.3-7.5,28.7A442.4,442.4,0,0,1,809.7,995c-2.8,4.9-6.7,6.9-12.3,7a407.3,407.3,0,0,1-126.9-18.7,13,13,0,0,0-4.1-.9c-.7,1.7.3,3.2.7,4.7a34.6,34.6,0,0,1-1.6,20.6c-4.6,11.8-16,17.5-29.5,14.5-4-.9-4.9-.1-5.5,3.9-3.2,19.3-20.2,29.3-38.7,22.6-3.5-1.2-4.9-.4-5.7,2.9a18.9,18.9,0,0,1-1.6,3.6C580.5,1063.6,575.1,1070.1,565,1070.9Z" transform="translate(-0.1 -0.1)"/>
	<path class="cls-2" d="M556.9,1c-9.3,1.9-15.8,7.6-20.8,16-5.3-8.3-11.7-14.1-21-16-.7-.3-.8-.6-.1-.9h42C557.7.4,557.6.7,556.9,1Z" transform="translate(-0.1 -0.1)"/>
	<path class="cls-2" d="M516,1070.9c8.4-3,15.3-7.9,20-16.8,4.3,8.8,11.4,13.1,19,16.8Z" transform="translate(-0.1 -0.1)"/>
	<path class="cls-3" d="M556.9,1a2.8,2.8,0,0,0,.1-.9h7a2.7,2.7,0,0,0,0,.9Z" transform="translate(-0.1 -0.1)"/>
	<path class="cls-4" d="M515,.1a2.8,2.8,0,0,0,.1.9H508a2.7,2.7,0,0,0,0-.9Z" transform="translate(-0.1 -0.1)"/>
	<path class="cls-5" d="M852.2,246.3c.1,56-16.8,99.1-54.5,133.3-1.9,1.7-3.8,3.6-2,6.4s3.6,2.3,6.1,1.5c55.3-17.9,105.7-6.4,152.6,25.5,39.3,26.9,69.5,62.3,95.5,101.7,3.9,6,7.4,12.2,11.2,18.3,1.2,1.9,1.4,3.4.2,5.4-29.2,49.1-64.5,92.6-112.9,124.1-27.4,17.9-57.3,28.8-90.3,29.9-18.7.7-36.8-2.2-54.6-7.7-1.8-.5-3.5-1.3-5.3-.9-3.7.9-4.3,4.7-1,7.8a176.7,176.7,0,0,1,18,18.7c26.3,32,37.3,69.2,37,110.2-.4,46-13.4,88.9-31.8,130.4a394.5,394.5,0,0,1-19.2,37.8c-1.1,2-2.2,3.3-4.8,3.3-54.7-.7-107.8-8.9-157.6-32.6-37.8-17.9-68-44.1-86.2-82.6a159.5,159.5,0,0,1-11.8-34.9c-.3-1.7-.4-3.7-1.8-5.1s-6.2-1.2-7.2,2.9c-2.1,8.4-4.2,16.8-7.3,24.9-15.7,41.9-45.3,71-84.3,91.4-31.5,16.4-65.2,25.6-100.1,30.9a454.4,454.4,0,0,1-62.7,5.1c-3.7.1-5.6-1.2-7.3-4.3-23.1-41.5-40.5-84.9-47.5-132.1-6.5-43.3-3-85.3,19.5-124.2a159,159,0,0,1,31.8-38.9c2-1.8,4.3-3.6,2.5-6.8s-4.5-2.1-7.1-1.3C217.2,701,169,691.5,123.9,662.7c-39.1-25-69.4-58.9-95.7-96.6-6.1-8.8-11.7-17.8-17.1-27-1.1-1.9-1.8-3.5-.4-5.9,27.9-47,61.7-88.9,107.1-120.3,24.1-16.6,50.4-28.2,79.7-32.3,23.8-3.4,47.1-1,70,6.1,1.5.4,2.9,1,4.3,1.3a4.2,4.2,0,0,0,4.7-2.2c1-1.9.5-3.5-.9-5a8.6,8.6,0,0,0-1.4-1.3c-38-34.6-54.8-78-54.4-128.8.4-44,12.5-85.3,29.7-125.3A389.9,389.9,0,0,1,270.7,83c1.3-2.3,2.7-3.3,5.4-3.2,54.3.6,107.1,8.8,156.7,32.2,38,18,68.3,44.2,86.6,82.8a159.5,159.5,0,0,1,11.8,34.9c.3,1.7.4,3.7,1.8,5.1s6.2,1.4,7.2-2.9a197.7,197.7,0,0,1,8.1-27.2c16-40.5,45.1-68.8,83.1-88.8,32.8-17.2,68-26.5,104.4-31.8a444.9,444.9,0,0,1,58.8-4.4c3.6,0,5.6,1.1,7.3,4.3,23,41.3,40.2,84.7,47.5,131.6C851.3,227.6,852.3,239.7,852.2,246.3Z" transform="translate(-0.1 -0.1)"/>
	<path class="cls-5" d="M424.9,98.9c21.8-22.6,44.7-42.8,73.7-54.9a80.7,80.7,0,0,1,23.1-6.2c22.1-2.1,43.4.4,63.3,11.4,23.4,12.9,43.4,30.1,61.7,49.3-.9,1.8-2.5,1.9-3.8,2.5a211.4,211.4,0,0,0-32.5,17.4c-2.5,1.6-3.9,1.8-6.2-.5C582.9,97.4,557.5,87.7,527.9,90c-22.9,1.9-42.7,11.1-59.1,27.1-3.2,3-5,2.8-8.2.6a216.8,216.8,0,0,0-31.2-16.6Z" transform="translate(-0.1 -0.1)"/>
	<path class="cls-5" d="M969.8,658.1a242.9,242.9,0,0,1,8.6,34.6c3.8,21.3,6.2,42.8,1,64-6.3,25.9-20.1,47.2-42.6,62.3s-48.4,24-74.7,30.7c-3,.8-3.4-.3-3.1-2.9a199.6,199.6,0,0,0,1.4-39.4c-.3-3,1.7-3,3.6-3.5,22-6.3,40.2-18.4,53.4-37.2,17.3-24.3,21.7-51.3,14.9-80.2-.8-3.2-.6-4.9,2.7-6.5C947.3,674,958.5,666.4,969.8,658.1Z" transform="translate(-0.1 -0.1)"/>
	<path class="cls-5" d="M213,221.4c-.4,6.3-.9,12.5-1.4,18.6a111.8,111.8,0,0,0,0,22.4c.4,3.8-1.1,4.7-4.2,5.6-36.5,11.4-59.9,35.4-68.6,72.8a91.8,91.8,0,0,0,1,44.5c.7,3,.7,4.6-2.5,6.2a205.8,205.8,0,0,0-32.2,20c-1.8,1.4-3.1,2.4-4-.9-8.2-28.9-13.7-58-9.9-88.2,1.5-12,6.1-22.8,11.6-33.6,17.5-33.9,49-47.8,82.1-59.7A196.9,196.9,0,0,1,213,221.4Z" transform="translate(-0.1 -0.1)"/>
	<path class="cls-5" d="M102.4,658.3c11.6,8.5,23.5,16.3,36.4,22.6,2.8,1.5,1.4,3.4,1,5.1-5.2,20.6-4.2,41,3.8,60.7,12,29.3,33.8,47.9,63.9,57,3.6,1,4.3,2.3,4,5.7a190,190,0,0,0,1.4,36.9c.3,2.3.8,4.4-3,3.5-26.3-6.8-52.1-15.2-74.6-30.9-28.8-20-43.9-47.8-45.2-82.9-1-26,4.1-51,11.2-75.7A21.9,21.9,0,0,1,102.4,658.3Z" transform="translate(-0.1 -0.1)"/>
	<path class="cls-5" d="M859.2,221.2c31.6,8,62.5,17.6,87.5,39.3,21.7,18.7,33.6,43,35.1,71.9,1.4,26.6-3.5,52.3-10.8,77.7-.9,3.2-1.8,3.2-4.2,1.4a205.7,205.7,0,0,0-32.5-20.3c-2.5-1.2-2.9-2.5-2.3-5,14-54.1-18-105-68.4-118.5-1.6-.5-3.5-.5-3.3-3.3,1.2-13.7.1-27.3-1.3-40.9A10.6,10.6,0,0,1,859.2,221.2Z" transform="translate(-0.1 -0.1)"/>
	<path class="cls-5" d="M647.3,972.6c-23.3,24-47.3,46.1-78.9,56.7-27.6,9.3-55.1,7.1-81.1-6.8-23.2-12.4-42.8-29.3-60.8-48.3a7,7,0,0,1-1.3-1.8c13.2-5.7,25.8-12,37.5-19.8,2.8-1.9,3.8,0,5.3,1.4,13.9,13.4,30.1,22.4,49.1,26,33.2,6.3,61.9-2.8,86.4-25.6,2.6-2.4,4.2-3.1,7.4-.9C622.1,961,634.1,967,647.3,972.6Z" transform="translate(-0.1 -0.1)"/>
	<path class="cls-5" d="M536,212.9a179.9,179.9,0,0,0-26.7-51.2c18-6.1,35.5-6.2,53.4,0A183.9,183.9,0,0,0,536,212.9Z" transform="translate(-0.1 -0.1)"/>
	<path class="cls-5" d="M198.6,371.8a79.3,79.3,0,0,1,24.6-44.4c1-1,1.9-2.3,2.9,0,7.3,17.2,17.7,32.3,29.9,46.3.1.1,0,.6,0,1.3C237.2,370.3,218.3,369.9,198.6,371.8Z" transform="translate(-0.1 -0.1)"/>
	<path class="cls-5" d="M814.5,696.5c20.1,4.4,39.2,5.7,58.8,3.3-3.3,18.1-11.9,32.6-24.8,44.8-1.1,1-1.8,1.4-2.6-.3C838.5,726.9,828.1,711.4,814.5,696.5Z" transform="translate(-0.1 -0.1)"/>
	<path class="cls-5" d="M198.6,699.7c19.7,2.5,38.7,1.2,59-3.2A171.3,171.3,0,0,0,225.2,746C211,733.5,202.2,718.5,198.6,699.7Z" transform="translate(-0.1 -0.1)"/>
	<path class="cls-5" d="M873,371.8a172,172,0,0,0-56.8,3c-.6-1.9.9-2.6,1.7-3.5a162.1,162.1,0,0,0,27.2-42.2c1.2-2.8,1.8-3.6,4.5-1a81.3,81.3,0,0,1,23.3,40.6,12.5,12.5,0,0,1,.3,1.9C873.3,370.9,873.1,371.2,873,371.8Z" transform="translate(-0.1 -0.1)"/>
	<path class="cls-5" d="M536,858.8c6.1,17.5,14,33.9,25,48.7,1.6,2.1,1.3,2.8-1.3,3.5a81.3,81.3,0,0,1-47.6,0c-1.7-.5-3-.9-1.5-2.9A181.5,181.5,0,0,0,536,858.8Z" transform="translate(-0.1 -0.1)"/>
	<path class="cls-5" d="M540.1,123.1c0-7.2.1-14.3,0-21.5-.1-2.4.3-3.7,3.2-3.3a105.4,105.4,0,0,1,26,6.5c2.4,1,3,1.8,2,4.4-5.2,12.7-10.2,25.6-15,38.4-.9,2.3-1.8,2.9-4.3,2.6-11.9-1.6-11.9-1.5-11.9-13.6Z" transform="translate(-0.1 -0.1)"/>
	<path class="cls-5" d="M531.9,123.7c0,7-.2,14,.1,21,.1,3.3-1.1,4.6-4.2,4.3s-8,3.1-10.9.5-2.9-6.5-4.2-9.9c-4-10-7.8-20.1-11.8-30.1-1.1-2.6-.9-3.7,1.9-4.8a102,102,0,0,1,26-6.4c2.5-.3,3.2.6,3.1,3C531.8,108.7,531.9,116.2,531.9,123.7Z" transform="translate(-0.1 -0.1)"/>
	<path class="cls-5" d="M540.1,948.4c0-7.3.1-14.6,0-21.9,0-2.3.2-3.7,3.1-3.8s8.8-2.5,11.5-.9,3.3,6.8,4.8,10.5c3.8,9.9,7.6,19.8,11.6,29.7,1.1,2.7.9,3.9-2.1,5.1a102.2,102.2,0,0,1-25.1,6c-3.2.4-3.9-.7-3.8-3.7C540.2,962.4,540.1,955.4,540.1,948.4Z" transform="translate(-0.1 -0.1)"/>
	<path class="cls-5" d="M531.9,948.5c0,7.2-.1,14.3,0,21.5.1,2.6-.7,3.4-3.4,3.1a93.5,93.5,0,0,1-26.5-6.5c-2-.8-2.2-1.8-1.4-3.8,5.2-13.1,9.7-26.5,15.7-39.3,2.6-5.6,8.6.1,13.1-.6s2.5,1.9,2.5,3.7Z" transform="translate(-0.1 -0.1)"/>
	<path class="cls-5" d="M190.7,359.4,148.5,353c-2-.3-2.8-1.1-2.6-3.2a88.1,88.1,0,0,1,7.9-27.1c.8-1.7,1.6-1.7,3-.8l39.7,22.8c.3.2.8.3.8.5.9,4.7-2.9,8.1-3.6,12.4C193.4,359.4,192.2,360.1,190.7,359.4Z" transform="translate(-0.1 -0.1)"/>
	<path class="cls-5" d="M926.2,350.8c.3,1.3-.8,1.9-2.8,2.2q-20.7,3-41.4,6.3c-2.2.4-3.1-.2-4-2.2-4.5-11.2-4.6-11.2,5.8-17.1s20.1-11.5,30.1-17.5c2.7-1.6,3.8-1.3,5,1.6A97.2,97.2,0,0,1,926.2,350.8Z" transform="translate(-0.1 -0.1)"/>
	<path class="cls-5" d="M211.8,326.8c-3.1,3.8-5.9,7.5-9,11-.9,1.1-2.1-.4-3-.9-12.7-7.3-25.3-14.7-38-21.9-2.4-1.3-2.4-2.3-.9-4.4a94.6,94.6,0,0,1,18.6-19.3c1.9-1.5,2.9-1.4,4.4.5,8.8,11.1,17.6,22.1,26.5,33.1Z" transform="translate(-0.1 -0.1)"/>
	<path class="cls-5" d="M869.9,338.1c-1.6-.4-2.1-1.8-2.9-2.8-2.2-2.8-6.2-5.8-6.1-8.7s3.9-5.7,6.2-8.6c6.9-8.5,13.9-17,20.6-25.7,1.9-2.5,3.1-2.5,5.5-.6a98.8,98.8,0,0,1,18,19.1c1.1,1.5,1.9,2.6-.4,3.9l-39.3,22.5Z" transform="translate(-0.1 -0.1)"/>
	<path class="cls-5" d="M159.1,758.3l41.3-23.9c.4-.3,1-.7,1.3-.6,4.3,1.7,5.5,6.6,8.8,9.3,1.6,1.3.9,2.5-.2,3.8-8.9,11.1-17.9,22.2-26.8,33.4-1.5,1.9-2.5,1.3-3.9.1A88.3,88.3,0,0,1,159.1,758.3Z" transform="translate(-0.1 -0.1)"/>
	<path class="cls-5" d="M912.6,758.7l-1.4,2.1a92,92,0,0,1-18.5,19.4c-2,1.6-3.1,1.5-4.7-.5-8.6-10.9-17.3-21.6-26-32.3-1.5-1.9-1.9-3.3.1-5a23.6,23.6,0,0,0,2-2.3c5.6-6.8,5.6-6.8,13.5-2.2l32,18.4C910.7,757,912,757.3,912.6,758.7Z" transform="translate(-0.1 -0.1)"/>
	<path class="cls-5" d="M926.2,721.4a93.8,93.8,0,0,1-7.9,27.3c-.9,1.9-1.7,1.9-3.4,1L875.7,727c-.3-.2-.8-.3-.8-.5-1.2-4.9,2.8-8.3,3.5-12.7.3-2.1,1.9-1.8,3.5-1.6l41.3,6.5C925.4,719,926.8,719.5,926.2,721.4Z" transform="translate(-0.1 -0.1)"/>
	<path class="cls-5" d="M190.9,712.1c1.8-.5,2.6.6,2.8,2,.6,4.3,4.6,7.6,3.5,12.3-.1.5-1.3.9-2,1.3-12.4,7.1-24.8,14.1-37.1,21.4-2.7,1.6-3.8,1.3-5-1.6a92.5,92.5,0,0,1-7.1-25.3c-.1-1.3-.8-3,1.6-3.3Z" transform="translate(-0.1 -0.1)"/>
	<path class="cls-5" d="M861.4,275.9a83.3,83.3,0,0,1,19.8,8.1c2.6,1.6,0,2.9-.8,3.9-7.8,9.9-15.7,19.8-23.8,29.6-.8,1-1.3,3.7-3.6,2s-3.1-2.5-2.1-5.3a156,156,0,0,0,7.6-31c.3-1.8.4-3.6.7-5.4S859.8,275.5,861.4,275.9Z" transform="translate(-0.1 -0.1)"/>
	<path class="cls-5" d="M568.2,917.5c1.2-.1,1.8,1.3,2.6,2.2a167.5,167.5,0,0,0,26.3,24.2c2.4,1.8,2.5,2.8.3,4.8a153.4,153.4,0,0,1-14.2,11c-2.1,1.4-3.4,1.9-4.6-1.3-4.5-12.2-9.3-24.4-14.2-36.5C562.9,918.1,565.4,918.1,568.2,917.5Z" transform="translate(-0.1 -0.1)"/>
	<path class="cls-5" d="M472.2,125.6c5.4-5.9,11.5-10.3,17.9-14.4,1.6-1.1,2.3-.5,2.9,1l14.7,38.1c.5,1.2,1.1,2.4-.9,3.1s-3.6.9-5.3-1A174.1,174.1,0,0,0,472.2,125.6Z" transform="translate(-0.1 -0.1)"/>
	<path class="cls-5" d="M221.6,316.2c-.2,1.7-1.7,2.6-2.9,3.5s-2-.6-2.7-1.4c-8.3-10.3-16.6-20.7-25-31-1.8-2.2-.9-3,1.1-4a101.2,101.2,0,0,1,17-7c1.8-.6,3.5-1.1,3.8,1.9a168.3,168.3,0,0,0,8.2,36.4A15.6,15.6,0,0,1,221.6,316.2Z" transform="translate(-0.1 -0.1)"/>
	<path class="cls-5" d="M599.8,125.5a178.4,178.4,0,0,0-29.3,26.8c-1.9,2.3-3.7,1.9-5.6.8s-.5-2.8,0-4.1c4.5-11.8,9.1-23.5,13.5-35.3,1.1-2.7,1.9-3.8,4.8-1.7C589,116,594.8,120.1,599.8,125.5Z" transform="translate(-0.1 -0.1)"/>
	<path class="cls-5" d="M189.2,786.7c9-11.3,17.8-22.2,26.6-33,.7-.9,1.1-3.1,2.8-1.8s3.6,2,2.7,4.7a165.1,165.1,0,0,0-8.4,37.3c-.3,2.3-1.5,2.1-3.2,1.6A89.3,89.3,0,0,1,189.2,786.7Z" transform="translate(-0.1 -0.1)"/>
	<path class="cls-5" d="M882.6,786.5l-1.9,1.4a101.9,101.9,0,0,1-18.4,7.6c-2.7.9-3-.4-3.3-2.5a153.9,153.9,0,0,0-8-35.4c-1-2.7.1-4.1,1.9-5.4s3,1.2,3.9,2.2c8,9.8,15.9,19.7,23.8,29.5Z" transform="translate(-0.1 -0.1)"/>
	<path class="cls-5" d="M145,365.7c-.4-3.7.4-4.9,4.6-4.2,12.1,2.3,24.3,3.8,36.4,5.7,1.5.3,4-.5,4.1,2.3s-1.2,4.1-4.1,4.6a141.9,141.9,0,0,0-33.2,10.2c-3.8,1.7-4.9.6-5.4-2.9C146.7,376.1,145.8,370.9,145,365.7Z" transform="translate(-0.1 -0.1)"/>
	<path class="cls-5" d="M926.9,364.3c-.8,6.9-1.3,12.8-2.7,18.7-.7,2.6-1.7,2.7-3.7,1.8A160.2,160.2,0,0,0,885.4,374c-2.8-.5-3.5-2.4-3.5-4.6s2.4-1.9,3.8-2.1c12.2-2,24.6-3.6,36.8-5.8C926.2,360.9,927.6,361.4,926.9,364.3Z" transform="translate(-0.1 -0.1)"/>
	<path class="cls-5" d="M145.1,707.2c.8-6.9,1.2-12.7,2.7-18.3.6-2.2.8-3.3,3.5-2.1a163.2,163.2,0,0,0,35.6,11c2.7.5,2.9,2.2,3.2,4.2s-2.2,1.9-3.5,2.2L149.8,710C146.5,710.5,143.7,710.8,145.1,707.2Z" transform="translate(-0.1 -0.1)"/>
	<path class="cls-5" d="M927,707.9c.7,2.6-1.3,2.7-4.3,2.2-12.4-2.1-24.9-3.9-37.4-5.9-1.3-.3-3.8.7-3.4-2.3s.6-3.6,3.3-4.1a153.2,153.2,0,0,0,22.1-5.9c4.6-1.6,9.1-3.3,13.5-5.2,2.1-.9,2.7-.5,3.3,1.7C925.7,694.4,926.2,700.5,927,707.9Z" transform="translate(-0.1 -0.1)"/>
	<path class="cls-5" d="M491,961c-2.2-1.5-4.5-2.9-6.6-4.4-4.1-2.9-10.1-5.7-10.8-9.8s6.1-6.2,9.5-9.3c6.2-5.6,12.4-11.1,17.8-17.5,1.8-2.2,3.5-3,5.9-1.7s.6,3.5.1,5c-4.3,11.5-8.8,23-13.4,34.4C493.1,958.9,493.2,960.9,491,961Z" transform="translate(-0.1 -0.1)"/>
	<path class="cls-5" d="M494.2,31.3c.4-2.5.6-4.6,1.1-6.7,2.4-8.9,9.8-15.7,16.7-15.5s16.7,8.7,18.6,17.3c.5,2,.1,2.6-2,2.6-10.8-.1-21,2.5-31.1,6.2C492.2,37.1,495.6,32.2,494.2,31.3Z" transform="translate(-0.1 -0.1)"/>
	<path class="cls-5" d="M541.5,29c-.7-1.8.1-3,.5-4.2,3.4-9.9,13-17.1,20.7-15.5s15.9,13.3,14.9,23.4c-.1,1.6.4,4-2.9,2.6A96.9,96.9,0,0,0,558,30.4,71.3,71.3,0,0,0,541.5,29Z" transform="translate(-0.1 -0.1)"/>
	<path class="cls-5" d="M966.4,827.4a28.3,28.3,0,0,1-15.5-4.1c-2.5-1.5-2.3-2.5-.2-4.2,8.1-6.5,15.2-13.9,20.3-22.9,1.6-2.9,2.7-2.1,4.3-.3a25.5,25.5,0,0,1,6.5,14.3C983,820.6,976.4,827.4,966.4,827.4Z" transform="translate(-0.1 -0.1)"/>
	<path class="cls-5" d="M107.3,827.4c-13.2.1-19.9-8.8-16.2-21.4a26,26,0,0,1,3.6-7.5c3.9-5.5,4-5.5,7.6,0A89.5,89.5,0,0,0,121.1,819c2.4,1.9,2.5,2.9-.2,4.4A25.4,25.4,0,0,1,107.3,827.4Z" transform="translate(-0.1 -0.1)"/>
	<path class="cls-5" d="M540.9,1042.9a91.1,91.1,0,0,0,33.4-6.5c2.8-1.1,3.3.1,3.3,2.3.1,8.5-2.5,15.7-9.4,21a12.5,12.5,0,0,1-13.6,1.4C546.9,1057.5,542.8,1051.3,540.9,1042.9Z" transform="translate(-0.1 -0.1)"/>
	<path class="cls-5" d="M82.7,750.1c1.7,11.7,4.6,22.4,10.2,32.1,1.6,2.7.8,3.5-1.9,3.8s-3.9.8-5.9.7c-7.6-.5-14.8-2.4-18-10.1s.2-14,5.1-19.6A20.9,20.9,0,0,1,82.7,750.1Z" transform="translate(-0.1 -0.1)"/>
	<path class="cls-5" d="M494.3,1039.6c-.2-3,.6-4.4,4.5-2.8a80.8,80.8,0,0,0,29.1,5.9c3,.1,3.5,1,2.3,3.5a.7.7,0,0,0-.1.5c-3.2,9.6-12.4,16.8-20.1,15.6S494.2,1050.7,494.3,1039.6Z" transform="translate(-0.1 -0.1)"/>
	<path class="cls-5" d="M989.3,750c8.7,3.4,14,9.1,16.2,17.5,1.8,6.5-.4,11.8-6.1,15.5s-12.3,4.4-19.1,2.9c-2.4-.5-2.5-1.4-1.4-3.4C984.6,772.6,987.6,761.8,989.3,750Z" transform="translate(-0.1 -0.1)"/>
	<path class="cls-5" d="M986.5,285a20.6,20.6,0,0,1,3.5.2c14.9,1.8,20.5,14.4,12,26.8a28.9,28.9,0,0,1-5.1,5.4c-6.4,5.4-7.3,5-8.9-3.1a80.6,80.6,0,0,0-7.8-22.9c-2.8-5.4-2.7-5.6,3.3-6.3Z" transform="translate(-0.1 -0.1)"/>
	<path class="cls-5" d="M85.3,285.1a20.9,20.9,0,0,1,2.5,0c6.6.5,6.8.8,3.8,6.5A88.2,88.2,0,0,0,83.3,318c-.6,3.9-1.9,3.5-4.4,2a26.7,26.7,0,0,1-9.1-8.3c-8.3-12.5-2.5-25,12.5-26.6,1-.1,2,0,3,0Z" transform="translate(-0.1 -0.1)"/>
	<path class="cls-5" d="M963.3,244.1c14.6.2,21,8.7,17.8,21a25,25,0,0,1-4.2,8.5c-3.7,4.9-3.7,4.9-7-.2a88.7,88.7,0,0,0-19.2-20.9c-2.2-1.8-2.2-2.8.2-4.2C955.3,245.7,960,244.2,963.3,244.1Z" transform="translate(-0.1 -0.1)"/>
	<path class="cls-5" d="M90.1,260.5c0-8.5,3.6-13.3,10.4-15.3s14-.7,20.4,3c2.9,1.6,2.4,2.7.1,4.5a83.9,83.9,0,0,0-20.2,23c-1.1,2-2,2.2-3.6.5C92.8,271.3,90.2,265.8,90.1,260.5Z" transform="translate(-0.1 -0.1)"/>
	<path class="cls-5" d="M899,855.3c-.5,6.1-1.7,13.9-9.6,17.3s-15.5-.6-21.7-6c-2.4-2.1-5.7-4.7-5.2-7.5s4.8-1.8,7.3-2.6c7.8-2.4,15.6-4.5,23.3-7C899,847.7,898.9,847.5,899,855.3Z" transform="translate(-0.1 -0.1)"/>
	<path class="cls-5" d="M173.1,855.3c-.1-7.8-.1-7.7,6-5.7a251.9,251.9,0,0,0,28.2,8.1c3.2.7,2.8,1.7,1.4,3.8a31.4,31.4,0,0,1-10.6,9.6c-12.1,6.2-21.4,2-24.4-11.2A30,30,0,0,1,173.1,855.3Z" transform="translate(-0.1 -0.1)"/>
	<path class="cls-5" d="M899,217.1c0,7,0,7-5.9,5A250.3,250.3,0,0,0,865,214c-3.2-.6-3.3-1.7-1.5-4.1,3.8-5.3,8.5-9.2,14.8-11.1,9.1-2.7,15.6.4,19,9.4A25.3,25.3,0,0,1,899,217.1Z" transform="translate(-0.1 -0.1)"/>
	<path class="cls-5" d="M173.1,215.9c.4-5.8,1.7-13.1,8.9-16.6s13.9-.6,20,3.8c3.4,2.4,7.6,5.6,7.4,9.3s-5.9,2.1-9.1,3.2c-6.9,2.3-13.9,4.2-20.8,6.4S173,224.2,173.1,215.9Z" transform="translate(-0.1 -0.1)"/>
	<path class="cls-5" d="M67.2,675a16.4,16.4,0,0,1,4.6-10.2,25.1,25.1,0,0,1,8.9-6.2c3.9-1.5,8.7-3.9,11.8-1.6s-1.1,6.2-1.8,9.6c-1.6,7.9-3.8,15.8-5.4,23.7-.6,2.9-1.4,3.3-3.8,2C74,688.5,68.3,683.4,67.2,675Z" transform="translate(-0.1 -0.1)"/>
	<path class="cls-5" d="M1004.8,674.2c0,7.1-9.2,17.8-15.8,18.8-1.6.2-1.9-.4-2.1-1.8a265,265,0,0,0-7.8-31.9c-.4-1.5-.9-2.9,1.6-3.1,8.9-.8,21.1,7.1,23.5,15.5C1004.5,672.7,1004.7,673.7,1004.8,674.2Z" transform="translate(-0.1 -0.1)"/>
	<path class="cls-5" d="M625.2,1005.3A310,310,0,0,0,652.7,979c5.1,8.5,6.4,16.8,2.7,25.6-2.6,6.3-8,9-14.9,8.1S630.1,1009.7,625.2,1005.3Z" transform="translate(-0.1 -0.1)"/>
	<path class="cls-5" d="M419.6,979.4a300.4,300.4,0,0,0,27.1,25.8c-7.7,7.9-20.3,10-26.5,4.5S412.6,988.2,419.6,979.4Z" transform="translate(-0.1 -0.1)"/>
	<path class="cls-5" d="M987.3,378.1c6.9,2.4,12.2,6.3,15.7,12.5a12.1,12.1,0,0,1-.8,13.7c-4.9,7-11.9,10.2-20.4,10.9-2.9.3-3.4-.7-2.5-3.3A286.8,286.8,0,0,0,987.3,378.1Z" transform="translate(-0.1 -0.1)"/>
	<path class="cls-5" d="M90,415.1a20.9,20.9,0,0,1-7.9-1.5c-8.4-3-14.8-10.1-14.9-16.5s7-15,14.8-18.1c2.6-1,2.9-.2,3.3,2.1a229.7,229.7,0,0,0,7.4,30.5C93.6,414.6,93.1,415.8,90,415.1Z" transform="translate(-0.1 -0.1)"/>
	<path class="cls-5" d="M419.6,92.2c-5.8-7.3-6.7-19.4-2.2-26.9A12.3,12.3,0,0,1,428,58.9c6.3-.2,11.7,2,16.8,5.4,1.9,1.3,1.8,2.3.1,3.8A274.1,274.1,0,0,0,419.6,92.2Z" transform="translate(-0.1 -0.1)"/>
	<path class="cls-5" d="M642.7,58.9c7.4,0,12.3,3.9,14,11.7a28.2,28.2,0,0,1-2.2,18.9c-1.1,2.3-1.8,3.2-4,.8a241.2,241.2,0,0,0-23.1-22.1c-1.9-1.5-2.2-2.6,0-4C632.1,61.1,637,58.8,642.7,58.9Z" transform="translate(-0.1 -0.1)"/>
	<path class="cls-6" d="M486.1,40.1a186.5,186.5,0,0,0-29.7,18.7c-2.6,2.1-2.9.1-3.6-1.6-3.5-8.6-.2-19.1,7.4-23.6S478.9,31.1,486.1,40.1Z" transform="translate(-0.1 -0.1)"/>
	<path class="cls-5" d="M164.7,844.3c-5.2,8.9-15.2,12.7-23.9,9.1s-13.3-13.8-10.6-23.2c.4-1.4.3-4.2,3.3-2.2C143.3,834.5,153.9,839.6,164.7,844.3Z" transform="translate(-0.1 -0.1)"/>
	<path class="cls-5" d="M940.4,826.8c4.5,10.3,1.1,21.3-7.6,25.9s-19.6,1.2-25.6-8.4C918.6,839.3,929.7,834,940.4,826.8Z" transform="translate(-0.1 -0.1)"/>
	<path class="cls-5" d="M620.7,1021.1c-.1,8.7-4.8,15.7-11.8,18.2s-15.8.4-21-5.1c-2.4-2.4-1.4-3.1,1-4.4a140.7,140.7,0,0,0,25.2-15.9c3.8-3.2,4.9-1.4,5.7,2.1A50.9,50.9,0,0,1,620.7,1021.1Z" transform="translate(-0.1 -0.1)"/>
	<path class="cls-5" d="M468.7,1040.5c-12.4.1-21.5-14.6-15.7-26.7,1-2.1,1.7-2.2,3.6-.9a160.6,160.6,0,0,0,27.2,17.3c2.6,1.3,1.9,2.3.4,3.9C480.2,1038.2,475.3,1040.3,468.7,1040.5Z" transform="translate(-0.1 -0.1)"/>
	<path class="cls-7" d="M81.2,347.1c.6,6.1,1.1,12.2,1.8,18.3.3,2.9-.2,3.9-3.4,3.2-9.1-1.8-16.1-9-16.5-17.5s5.8-16.9,14.7-19.5c3.2-1,4.1-.4,3.8,3s-.1,8.3-.1,12.5Z" transform="translate(-0.1 -0.1)"/>
	<path class="cls-6" d="M617.5,60.1a191.3,191.3,0,0,0-29.3-18.7c-2.1-1.1-2.2-1.8-.7-3.6,6.3-7.3,18.1-8.8,25.7-3.2S622.8,51.4,617.5,60.1Z" transform="translate(-0.1 -0.1)"/>
	<path class="cls-5" d="M1008.9,350.1c0,9.2-8.1,17.8-17.5,18.7-2,.2-2.7-.4-2.4-2.4,1.3-11,2.2-22.1,1.4-33.2-.2-2.6,1.3-2.2,2.8-1.9C1001.7,332.9,1008.9,341.5,1008.9,350.1Z" transform="translate(-0.1 -0.1)"/>
	<path class="cls-5" d="M129.3,236.8c-.1-8.7,5-16.3,12.3-18.9s16.6.4,21.5,6.6c1.9,2.4,1.2,3.2-1.2,4.2a144.9,144.9,0,0,0-26.5,13.8c-3.9,2.6-5,1.6-5.5-2.4A18,18,0,0,0,129.3,236.8Z" transform="translate(-0.1 -0.1)"/>
	<path class="cls-5" d="M990.8,725c-.6-6.3-1-12.6-1.8-18.9-.3-2.7.4-3.5,3.1-3.1,8.6,1,16.5,9.2,16.8,17.7s-6.5,17.4-15,19.3c-3,.7-3.7,0-3.5-3.1a117.8,117.8,0,0,0,.1-11.9Z" transform="translate(-0.1 -0.1)"/>
	<path class="cls-5" d="M940.3,244.6a205.3,205.3,0,0,0-30.8-16.2c-2.3-.9-2.1-1.8-.8-3.6,4.7-6.6,14.7-9.7,22.3-6.7s12.6,11.6,11.5,19.7C942.2,240.1,942,242.4,940.3,244.6Z" transform="translate(-0.1 -0.1)"/>
	<path class="cls-5" d="M82.9,705.6c-1.1,10.6-2.1,21.5-1.3,32.5.2,2.4-1,2.3-2.7,2-8.7-1.1-16.3-10.5-15.8-19.6s9.1-17.3,17.5-17.6C82.5,702.8,83.5,703.2,82.9,705.6Z" transform="translate(-0.1 -0.1)"/>
	<path class="cls-1" d="M1025.8,426.8a16.7,16.7,0,1,1,33.3.7,16.7,16.7,0,1,1-33.3-.7Z" transform="translate(-0.1 -0.1)"/>
	<path class="cls-1" d="M900.1,150.6a16.7,16.7,0,1,1-33.4.3,16.7,16.7,0,0,1,33.4-.3Z" transform="translate(-0.1 -0.1)"/>
	<path class="cls-1" d="M695.5,25.9A16.7,16.7,0,1,1,679,43,16.7,16.7,0,0,1,695.5,25.9Z" transform="translate(-0.1 -0.1)"/>
	<path class="cls-8" d="M393.9,43.1c-.2,9.2-8,16.9-17.1,16.7s-16.9-8.1-16.6-17.2a16.9,16.9,0,0,1,33.7.5Z" transform="translate(-0.1 -0.1)"/>
	<path class="cls-1" d="M205.2,152.1a16.7,16.7,0,1,1-16.4-17A16.4,16.4,0,0,1,205.2,152.1Z" transform="translate(-0.1 -0.1)"/>
	<path class="cls-1" d="M28.7,444.2a16.7,16.7,0,1,1,.5-33.3,16.7,16.7,0,0,1-.5,33.3Z" transform="translate(-0.1 -0.1)"/>
	<path class="cls-9" d="M695.9,1012.2A16.8,16.8,0,1,1,679,1029,16.9,16.9,0,0,1,695.9,1012.2Z" transform="translate(-0.1 -0.1)"/>
	<path class="cls-1" d="M1042.2,661.3a16.7,16.7,0,1,1,16.9-16.6A16.4,16.4,0,0,1,1042.2,661.3Z" transform="translate(-0.1 -0.1)"/>
	<path class="cls-1" d="M900.1,920.8A16.7,16.7,0,1,1,883.3,904,16.7,16.7,0,0,1,900.1,920.8Z" transform="translate(-0.1 -0.1)"/>
	<path class="cls-1" d="M171.9,919.6a16.7,16.7,0,1,1,33.3.7,16.7,16.7,0,1,1-33.3-.7Z" transform="translate(-0.1 -0.1)"/>
	<path class="cls-8" d="M377,1011.9a16.8,16.8,0,1,1-16.8,16.9A17,17,0,0,1,377,1011.9Z" transform="translate(-0.1 -0.1)"/>
	<path class="cls-1" d="M12.1,644.1a16.8,16.8,0,1,1,16.8,16.8A16.9,16.9,0,0,1,12.1,644.1Z" transform="translate(-0.1 -0.1)"/>
	<path class="cls-1" d="M738.7,419.2c8.2-2.5,16.3-5.3,24.6-7.6,40.2-11.3,80.6-13.9,121.1-1.9,48.1,14.4,84.6,44.4,113.6,84.6a233.2,233.2,0,0,1,22.1,37.3c1.2,2.5,1.8,4.8.4,7.5-29.7,59.3-72.8,103.9-138,123.3-39.3,11.7-78.7,8.8-117.7-1.9-8.7-2.4-17.2-5.1-25.6-8.3a8.7,8.7,0,0,0-2.3,0c21.6,17.8,40.7,37.5,55.7,60.8,35.5,54.9,40.6,113.5,21,175a249.4,249.4,0,0,1-31.5,64.3c-2.2,3.2-4.7,4.5-8.6,4.8-44.6,2.9-87.3-4.2-127.3-24.6-51.4-26.2-83-68.9-100.1-123.1-4.2-13.2-7.2-26.7-10.5-40.4-.9,4.4-1.7,8.7-2.6,13.1-7.8,36.7-21.4,70.9-45.3,100.4-30.3,37.3-70,59.1-116.5,69.4a244.7,244.7,0,0,1-73.4,5.1c-3.3-.3-5.6-1.3-7.5-4.1-28.2-42.3-44.4-88.5-43-139.8s22-93.6,55.8-130.7a308.3,308.3,0,0,1,27.3-26.3l4.7-4.3c-10.1,3.2-18.8,6.2-27.6,8.6-42.6,11.8-85.3,13.6-127.7-1-45.2-15.5-79.5-45-106.8-83.4a234.1,234.1,0,0,1-21.1-36.2c-1.2-2.4-1.8-4.6-.5-7.1C81,473.4,124.1,428.8,189.2,409.3c39.8-11.9,79.7-8.9,119.2,2.2,8.2,2.3,16.1,5,24.5,7.6,0-2.5-2-3.1-3.2-4.1-24.6-21.2-45.8-45.2-60.7-74.2-25.1-48.5-27.7-98.9-12.6-150.7a251.8,251.8,0,0,1,33.3-70.5c2-3,4.3-4.7,8-5,85.8-6,191.2,27.3,228.3,147.9,4,13.2,7.2,26.5,10.4,40.2.9-4.4,1.7-8.8,2.6-13.2,8.8-41.4,24.9-79.3,54.2-110.6S661,128,703.8,119.1a248.7,248.7,0,0,1,71-4.4,8.3,8.3,0,0,1,6.9,4.1c28.1,42.2,44.3,88.2,43,139.3-1.2,45.3-17.8,84.8-46.1,119.8C766.5,392.8,752.9,406.2,738.7,419.2Z" transform="translate(-0.1 -0.1)"/>
	<path class="cls-10" d="M1042.7,418.8a8.4,8.4,0,0,1,8.1,8.3,8.3,8.3,0,0,1-8.9,8.1,8.2,8.2,0,0,1-7.8-8.5A8.3,8.3,0,0,1,1042.7,418.8Z" transform="translate(-0.1 -0.1)"/>
	<path class="cls-10" d="M883.6,159.1a8.3,8.3,0,1,1,8.1-8.3A8.3,8.3,0,0,1,883.6,159.1Z" transform="translate(-0.1 -0.1)"/>
	<path class="cls-10" d="M704,42.7a8.4,8.4,0,0,1-8.2,8.3,8.5,8.5,0,0,1-8.3-8.3,8.3,8.3,0,1,1,16.5,0Z" transform="translate(-0.1 -0.1)"/>
	<path class="cls-6" d="M377,51.2a8.1,8.1,0,0,1-8.2-8.1,8.2,8.2,0,0,1,8-8.4,8.1,8.1,0,0,1,8.4,8.4A7.9,7.9,0,0,1,377,51.2Z" transform="translate(-0.1 -0.1)"/>
	<path class="cls-10" d="M188.4,143.4a8.4,8.4,0,0,1,.5,16.7,8.5,8.5,0,0,1-8.7-8.3A8.6,8.6,0,0,1,188.4,143.4Z" transform="translate(-0.1 -0.1)"/>
	<path class="cls-10" d="M28.7,419.2a8.4,8.4,0,1,1,0,16.7,8.7,8.7,0,0,1-8.2-8.4A8.5,8.5,0,0,1,28.7,419.2Z" transform="translate(-0.1 -0.1)"/>
	<path class="cls-2" d="M696,1020.8a8.1,8.1,0,0,1,8,8.3,8.2,8.2,0,0,1-8.7,8.2,8.3,8.3,0,0,1,.7-16.5Z" transform="translate(-0.1 -0.1)"/>
	<path class="cls-10" d="M1042.3,636.2a8.7,8.7,0,0,1,8.5,8.2,8.6,8.6,0,0,1-8.5,8.5,8.5,8.5,0,0,1-8.2-8.3A8.7,8.7,0,0,1,1042.3,636.2Z" transform="translate(-0.1 -0.1)"/>
	<path class="cls-10" d="M891.7,920.5a8.4,8.4,0,1,1-8.4-8A8.4,8.4,0,0,1,891.7,920.5Z" transform="translate(-0.1 -0.1)"/>
	<path class="cls-10" d="M196.9,920a8.4,8.4,0,1,1-8.1-8.3A8.2,8.2,0,0,1,196.9,920Z" transform="translate(-0.1 -0.1)"/>
	<path class="cls-6" d="M385.2,1028.6a8.2,8.2,0,1,1-16.4-.1,8.3,8.3,0,0,1,8.3-8.2A8.2,8.2,0,0,1,385.2,1028.6Z" transform="translate(-0.1 -0.1)"/>
	<path class="cls-2" d="M28.9,652.3a8.2,8.2,0,0,1-.4-16.4,8.2,8.2,0,1,1,.4,16.4Z" transform="translate(-0.1 -0.1)"/>
	<path id="number1" class="cls-5" d="M707.1,429.6c6-10.9,6.1-25-.3-32.2-9.2-10.4-20.2-8.6-31.5-3.7,8.2-28.4-14.5-46.3-39.8-30.6.3-12.4-2.4-23.5-14.8-28.5s-22.1,1.3-31.3,10c-.5-4.5-1-8.3-2.4-11.8-5.1-13.3-18.7-18.1-31.1-11.1-5.6,3.2-10,8-14.8,13.7,4.3-48.3,15.3-93.1,43.2-132.2s67.4-62.9,114.3-74a249,249,0,0,1,69.4-6.5c4.8.3,7.8,2.3,10.4,6.4,20.6,33.1,34.1,68.8,37.3,107.8,3.6,44.7-8,85.4-33.5,122.1-19.6,28.2-44.5,50.8-72.5,70.3A2,2,0,0,1,707.1,429.6Z" transform="translate(-0.1 -0.1)"/>
	<path id="number5" class="cls-5" d="M359.1,439.9c-4,1-7.5,1.7-10.7,2.8-9.1,3-16.8,7.6-18.6,18.1s3.3,17.5,10.9,23.5l2.7,2.2c-12.7,3.9-23.5,9.7-24.2,24.3-.6,12.1,7.2,19.4,17.8,24.9-11,6-19.5,14-17.6,27.4s12.1,18.6,24.2,22c-9.7,7.1-16.9,15.3-13.4,27.6s16.3,16.1,28.2,18.8c-1,2-3.2,2.2-4.9,3-30.3,13.9-61.8,23.7-95.2,26.2-52.7,3.9-99.2-11.6-139.1-46.3-23.3-20.1-41.7-44.2-56.3-71.3-2.8-5.2-2.9-9.5,0-14.8,17.8-32.4,40.5-60.6,70.6-82.4,43.7-31.7,92.5-41.3,145.4-32.4,26.5,4.4,51.8,13,76.2,24.3Z" transform="translate(-0.1 -0.1)"/>
	<path id="number3" class="cls-5" d="M635.4,708.1c10.7,6.5,21.3,9.6,31.6,2.3s11.2-19.8,7.9-32.3c3.6,1.1,6.8,2.3,10.1,3,15.7,3.4,27.8-7.6,26.4-23.5-.4-5.3-1.9-10.3-3.7-15.7a13.4,13.4,0,0,1,2,.5c34.9,24.5,65.2,53.3,85.4,91.5,24.9,47.3,26.8,96.6,11.5,147.2a256.2,256.2,0,0,1-28.7,62.2c-2.1,3.4-4.8,5.5-8.8,5.6-45,1.6-87.9-6-127.3-28.5-43.9-25-71.1-63.2-86.6-110.5-7.7-23.5-11.9-47.7-14-73,2.4,2.5,4.4,4.6,6.5,6.6,4.7,4.6,9.9,8.5,16.6,9.4,12.3,1.7,22.3-6.8,24.6-20.8.2-1.4.3-2.8.5-5,9.1,8.5,18.8,14.8,31.2,9.9S635.8,721,635.4,708.1Z" transform="translate(-0.1 -0.1)"/>
	<path id="number2" class="cls-5" d="M713.6,631.4c12-2.5,23.9-5.1,28.2-18.4,3.2-9.8-.8-17.7-13.2-27.9,11.9-3.5,22.3-9,24.1-22.3s-6.8-21.1-17.7-27.1c10.8-5.6,18.8-13.1,17.7-25.7s-11.6-19.8-23.9-23.3c22.1-15.3,18.2-42.2-15.8-46.9a258.4,258.4,0,0,1,25.8-11.2c29.3-11.3,59.5-18.5,91-18.3,58.1.4,105.3,24.6,143.7,67.3a258.3,258.3,0,0,1,35.9,51.5c2,3.9,2.9,7.7.7,11.9-22.8,42.9-53.7,78.1-97.5,100.6-37.2,19.2-76.9,23.4-118,16.8-27.3-4.4-53.1-13.3-78.1-24.8C715.5,633.1,714.2,633,713.6,631.4Z" transform="translate(-0.1 -0.1)"/>
	<path class="cls-11" d="M494.8,715.1c-3.4-2.3-10.3-4-13.8-3.4a2.4,2.4,0,0,1-2.2.9,62.1,62.1,0,0,1-18.7-7,2.3,2.3,0,0,1-1.2-2.5c.5-1.9-1.2-1.7-2.1-2.2-6.1-3.1-12.3-6.1-18.1-9.8-.9-.6-1.7-1.1-2.7-.3s-.6.5-.8.4a39.1,39.1,0,0,1-19.4-14.3c-.1-.2.1-.6.2-.9s-.8-2.4-1.6-3.1c-4.1-3.4-7.5-7.6-12.4-10-4.7-.4-8.6-4.7-8.9-9.9,1.3-1.5-.1-2.4-.9-3.3a177.1,177.1,0,0,1-37.9-84.1c-5-30.8-3-61.3,7.3-90.9.6-1.8,2.1-3.6.7-5.7s-.4-4,.2-5.9c1.9-5.3,4.9-10.1,6.6-15.4,4.8-.1,8.5-4.5,9.1-10.7-1-1.7-.1-3.2.8-4.6a164.9,164.9,0,0,1,16.8-22.1c1.3-1.4,2.7-3.1,5.1-2.3a40.9,40.9,0,0,0,9.1-9c-.8-2.2.8-3.4,2.2-4.6A145.5,145.5,0,0,1,432.4,379c1.6-1.1,3.3-2.5,5.4-1a41.5,41.5,0,0,0,10.2-6c-.4-1.8.9-2.8,2.2-3.5a156.1,156.1,0,0,1,28.1-11.4,9.4,9.4,0,0,1,2.9,0c3.9,1.7,6.9-.6,10-2.4s5.5-2.9,8.5-3.5c7.5-1.5,15.1-2.1,22.7-3.1a10,10,0,0,1,7.5,1.9h12.2c3.7-3.2,7.8-1.4,11.9-1.1a168,168,0,0,1,21.1,3.2c2.1.4,4.2,1,5.7,2.7,3.1,1.7,6.1,4,10,2.3,12.2,3,23.9,7.3,34.1,14.9,1.9,3.1,5.1,4.2,8.3,5.1a12.8,12.8,0,0,1,4.6,1.7,179.8,179.8,0,0,1,21.9,16.9,11.3,11.3,0,0,1,3.2,4.3,33.2,33.2,0,0,0,7,7c4.3,2.2,7,6,10,9.6s7.6,10,11.3,15.2a14.9,14.9,0,0,1,2.6,6.8c1.9,4.2,3.3,8.9,9.1,9.1,0,1-2.1.8-.9,2.9a139.6,139.6,0,0,1,11.7,27.9,9.9,9.9,0,0,1,.3,5.9c.6,3.2,1.3,6.5,2,9.7,3.5,2.8,3.4,7,4.1,10.9,1.1,6.5,2.2,13.1,1.9,19.8,0,2.1.1,4.3-1.9,5.9.3,3.4-1.6,7.2,1.8,10.1.7,10.8-1.2,21.3-3.2,31.9a8.8,8.8,0,0,1-2.5,5.2,17.9,17.9,0,0,0-3.2,9.2c1.5,1.8.8,3.8.2,5.7a175.1,175.1,0,0,1-10.4,25.9c-1,2-1.8,4.4-4.8,4.3-1.6,3.2-5.3,5.5-4,9.8-4.7,10.3-12.2,18.5-19.4,27-1.4,1.7-2.7,4-5.6,3.2-2.5,2.4-6,3.9-7,7.6a4.8,4.8,0,0,1-1.8,3.5c-8.4,7.6-17.3,14.6-27.4,19.9-1.2-1.8-2.7-1.3-4.1-.4s-4.9,2.4-6.6,4.7c-.1,2.2-1.8,3.1-3.4,3.9a126.4,126.4,0,0,1-23.4,9.9c-1.8.5-3.6,1-5.3-.2-3.9-1-7.1.3-10,2.9s-6.8,3.5-10.7,4.2c-6.1,1.2-12.3,1.9-18.6,2.5-2.1.2-4.3.4-5.7-1.8a50.6,50.6,0,0,0-19,0c-1.3,2.1-3.3,2-5.3,1.8-6.7-.6-13.5-1.4-20.1-2.6C498.2,718.5,495.5,718.2,494.8,715.1Z" transform="translate(-0.1 -0.1)"/>
	<path class="cls-5" d="M669,663c8.3-8.1,15.2-17.5,21.7-27,.8-1.3,1-3.4,3.3-3.2,3.1,6.8,6.8,13.3,8.3,20.7a30.5,30.5,0,0,1,.7,7.4c-.3,7.8-5.4,12.7-13.2,12.3S674.7,668.8,669,663Z" transform="translate(-0.1 -0.1)"/>
	<path class="cls-5" d="M545,719.7c11.9-.3,23.4-2.5,35-4.9a36.8,36.8,0,0,1-.3,19.2c-2.8,10.2-12.1,13.7-20.9,7.7s-13-13-17.8-21.4Z" transform="translate(-0.1 -0.1)"/>
	<path class="cls-5" d="M698,623c6.7-11.2,11.1-23.5,15-35.9a38.9,38.9,0,0,1,16.4,9.9c7.6,7.8,6.2,17.4-3.7,22S707.7,624.9,698,623Z" transform="translate(-0.1 -0.1)"/>
	<path class="cls-5" d="M494.8,715.1c10.1,3,20.6,4,31.2,4.6l5.2.5c-5.5,9-10.8,17.7-20.1,22.7-7.3,4-14.7,1.1-18-6.5s-2.3-12.6-1.8-19.1C491.5,714.8,493,714.9,494.8,715.1Z" transform="translate(-0.1 -0.1)"/>
	<path class="cls-5" d="M714,484.4c-4.8-12.1-8.5-24.5-15-35.7,1.3-1.3,2.8-.5,3.9-1,6.7.5,13.3,1,19.6,3.4s10.2,4.7,11.4,10.9-2.5,11.4-7.4,15.3A55.2,55.2,0,0,1,714,484.4Z" transform="translate(-0.1 -0.1)"/>
	<path class="cls-5" d="M693.8,438.6c-7.2-11.1-15.7-21.2-23.9-31.6,5.1-3.3,10.2-6.8,16.3-8.2,10.2-2.2,17.1,3.4,16.8,13.8S698.2,430.4,693.8,438.6Z" transform="translate(-0.1 -0.1)"/>
	<path class="cls-5" d="M393.1,653a55.8,55.8,0,0,0,8.9,9.9c-4,7.8-20.2,12.9-27.3,8.5-4-2.4-5.6-6-5.7-10.4-.2-10.2,4.3-18.8,9.1-27.8C383.2,640.2,387.4,647.2,393.1,653Z" transform="translate(-0.1 -0.1)"/>
	<path class="cls-5" d="M590,711.9c11.1-3.6,22-7.6,32.1-13.6,1.4-.6,2.1,0,2.6,1.3,2.1,6.6,3.5,13.2,1.3,20-2.9,9.2-11.4,13.2-20.1,9.1A31.5,31.5,0,0,1,590,711.9Z" transform="translate(-0.1 -0.1)"/>
	<path class="cls-5" d="M632.8,694c0-.9,0-1.6.9-2.1,10.2-6.1,19.1-13.8,28.3-21.3,3.9,6.5,6.5,13.4,6.2,21.1-.5,10.7-9,16.6-19.4,13.6C642.1,703.4,637.5,698.7,632.8,694Z" transform="translate(-0.1 -0.1)"/>
	<path class="cls-5" d="M716.2,577.9c1-7.7,1.9-15.3,3.1-22.9a92.4,92.4,0,0,0,.7-10.4c.1-1.5-.6-3.5,1.9-3.8,5.4,1.3,10.6,2.7,15.1,6,10.8,8,9.8,20.8-2.1,26.9C729.1,576.8,722.6,577.3,716.2,577.9Z" transform="translate(-0.1 -0.1)"/>
	<path class="cls-5" d="M372.7,623.9c-9.2-.2-17.6-.8-25.5-4.3-10.9-4.9-12.5-14.9-4-23.3a41.3,41.3,0,0,1,11.7-7.6c1.3-.6,2.6-1.7,3.3.9A207.2,207.2,0,0,0,372.7,623.9Z" transform="translate(-0.1 -0.1)"/>
	<path class="cls-5" d="M458.9,703.1c7,3.9,14.5,6.3,22.1,8.6.5.3,1.3.7.8,1.5-3.9,6.4-8.5,12.2-15.6,15.5-10.2,4.6-20.1-1.7-21.1-13.3a37.7,37.7,0,0,1,1.7-14.2c.8-2.7,1.6-3.1,4-1.8S455.9,702.5,458.9,703.1Z" transform="translate(-0.1 -0.1)"/>
	<path class="cls-5" d="M720.1,530.7c.3-12.4-1.8-24.5-4.1-36.6,7.4-.3,14.6,1,20.9,5.1,9.4,5.9,10.2,16.9,1.8,24.2A30.2,30.2,0,0,1,720.1,530.7Z" transform="translate(-0.1 -0.1)"/>
	<path class="cls-5" d="M580.8,354.8c-6.8.4-13.2-2.6-19.9-2.9s-12.6-1.2-18.8-1.9c4-7.9,9.1-15,16.6-20,9-6.2,18.2-2.6,21.2,7.9C581.4,343.5,580.9,349.1,580.8,354.8Z" transform="translate(-0.1 -0.1)"/>
	<path class="cls-5" d="M416,676a111.3,111.3,0,0,0,20,14.8c2.8,1.6,3.6,3.1.7,5.7-5.2,4.8-10.5,9.3-18,9.5s-13.9-4.9-14.7-13,1.7-14.9,5.6-21.9Z" transform="translate(-0.1 -0.1)"/>
	<path class="cls-5" d="M529.9,350a199.4,199.4,0,0,0-35.3,4.5,5.7,5.7,0,0,1-3.4.2c-.1-5.4-.6-10.9.8-16.3,2.9-11.1,12.4-14.7,21.8-8.1C520.9,335.3,526.1,342.2,529.9,350Z" transform="translate(-0.1 -0.1)"/>
	<path class="cls-5" d="M400.9,408c-8.9,8.6-16.2,18.6-22.7,29-6.2-8.2-9.7-17.5-9-27.8.4-6.7,6.2-11.4,13-10.9s12.9,3.8,18.4,7.9C400.9,406.5,400.8,407.4,400.9,408Z" transform="translate(-0.1 -0.1)"/>
	<path class="cls-5" d="M369.1,447.7c2.9.2,1.9,1.6,1.1,3.2-2.9,5.9-5.9,11.8-7.9,18.1-1.4,3.5-3.3,6.9-4,10.5s-2.9,4-5.8,2.3-7.2-4.2-10.1-7.3c-7.4-7.9-5.8-17.2,3.9-22C353.5,448.9,361.3,448.3,369.1,447.7Z" transform="translate(-0.1 -0.1)"/>
	<path class="cls-5" d="M662.9,400c-5.4-2.9-9.4-7.7-14.2-11.4s-11-6.8-15.5-11.5c3.9-3.6,7.5-7.4,12.5-9.6,12.3-5.6,22.7,1.1,22.5,14.6C668.1,388.6,665.5,394.2,662.9,400Z" transform="translate(-0.1 -0.1)"/>
	<path class="cls-5" d="M624.9,372a3.7,3.7,0,0,1-3.2-.7A195.8,195.8,0,0,0,593,359.2c-1.2-.4-2.2-.6-2.2-2.1,3.3-4.4,6.5-8.9,11.1-11.9s10.8-5.5,16.8-2.3,7.9,8.6,8.3,14.9S625.8,367.3,624.9,372Z" transform="translate(-0.1 -0.1)"/>
	<path class="cls-5" d="M349.9,541a220.1,220.1,0,0,0,4.6,34.5c.5,2.2-.5,2.2-2.1,2.1-6.7-.7-13.2-1.8-18.7-6-7.4-5.7-8.3-14.8-2-21.7C336.4,544.6,342.8,542.4,349.9,541Z" transform="translate(-0.1 -0.1)"/>
	<path class="cls-5" d="M352.5,494c1.8-.5,1.9,1,1.4,2.9a182.2,182.2,0,0,0-3.8,31.2c-.1,1.9-.5,2.6-2.6,2.1-5.9-1.4-11.4-3.6-15.6-8.2-6.7-7.2-5.7-16.7,2.4-22.4C339.5,496,345.6,494.8,352.5,494Z" transform="translate(-0.1 -0.1)"/>
	<path class="cls-5" d="M481.2,357.1c-.8,1.8-2.7,1.6-4.2,2.2-9.9,3.6-19.8,7.2-29,12.7a24.5,24.5,0,0,1-1.2-21.9c3.4-8.3,11.9-11,20.3-6.8C473.2,346.4,477.3,351.7,481.2,357.1Z" transform="translate(-0.1 -0.1)"/>
	<path class="cls-5" d="M437.8,378A132,132,0,0,0,410,399c-6.2-6.6-7.1-14.6-5.5-22.9,1.1-5.9,5.2-9.5,11.4-10.4C423.9,364.6,435.2,370.9,437.8,378Z" transform="translate(-0.1 -0.1)"/>
	<path class="cls-12" d="M530.1,743.1c0-1.8-.1-3.7-.1-5.5s.8-1.2.9-.2A8.7,8.7,0,0,1,530.1,743.1Z" transform="translate(-0.1 -0.1)"/>
	<path id="number6" class="cls-5" d="M530.8,335.1c-9.1-10.1-17.6-19.5-32-15.8-9.1,2.4-13.3,9.2-16.6,24.9-9.5-8.9-20.1-15.3-33.1-8.5-10.5,5.5-13,15.7-12.5,27.6-10.8-6.2-22-9.8-32.6-1.4s-10.1,19.9-6.9,32c-11.7-5.1-22.9-7.1-31.8,3.5s-4.3,21.4-.9,33.2a267,267,0,0,1-22-16.2c-29.4-23.7-54.1-51.3-70.1-85.9-20.6-45-21.1-91.1-7-137.8a254,254,0,0,1,28.3-61.5c2.6-4.2,5.8-6.3,10.9-6.5,51.9-1.5,100.5,9,143.3,40.1,33.6,24.3,54.9,57.5,68.1,96.2C524.2,283.4,528.7,308.5,530.8,335.1Z" transform="translate(-0.1 -0.1)"/>
	<path id="number4" class="cls-5" d="M530.1,743.1c-4.8,50.1-18.2,97-51.1,136.6-28.1,33.7-64.8,53.4-107.2,63.1a254.8,254.8,0,0,1-66.9,6.2c-4.7-.2-8.3-1.7-10.8-5.8C268.6,902.1,253.7,857.9,256,809c2-40.2,17-75.5,41.6-107,17.9-22.9,39.5-41.9,63.2-58.6.8-.5,1.6-1.8,3.2-1-3.4,11.9-7.5,24.2,3.6,34.2,8.9,8.1,19.1,5.9,29.5,1.1-3.2,12.7-3.2,24.4,8,32.9,7.5,5.7,17,4.8,31.4-2.2-.3,12.2,2.3,23.4,14.6,28.5s22.2-1,31.3-9.8c.8,4,1.1,7.6,2.3,11,5.1,14,19.1,19.1,32,11.5,5.2-3.1,9.1-7.7,13.3-12C530.9,739.4,530.6,741.2,530.1,743.1Z" transform="translate(-0.1 -0.1)"/>
	<path id="number-1" class="cls-13" d="M677.9,231.9l-12.3,5.4c-1.3.5-3,2-3.9.1s-1.3-4.2.9-5.3c7.5-3.9,13.7-9.4,20.6-14.1,3.9-2.6,9.4-1,14.1-.7,2.2.2,1.2,2.8,1.2,4.3q.2,31.2.1,62.4v8c.1,6.9.1,6.9,7,6.9h2.5c1.3-.1,2.1.4,2.1,2s-.6,2.1-2,2h-39c-1.4,0-2.2-.4-2.2-2s.7-1.9,2.1-2.1,6.2,1.4,8-1.3.8-6.1.8-9.2V231.9Z" transform="translate(-0.1 -0.1)"/>
	<path id="number-5" class="cls-14" d="M201.1,527.8c11.7-7.8,23.5-7.5,35.2-2.3,17.6,7.7,20.7,30.8,6.1,43.3-10.6,9.1-30.8,11.1-42.9,4.3-4.7-2.6-7.8-6.2-7.5-11.9s2.4-7.8,6.7-8.9,8.7-.4,11.6,3.7,1.7,5.5.4,8.5c-2.3,5.2.5,8.8,6.2,8.3a10.4,10.4,0,0,0,8.7-6.6,44.6,44.6,0,0,0,1.3-32.7c-2.5-7.5-11.5-9.5-19.3-4.9a27,27,0,0,0-6.5,6.1c-1.4,1.8-3.4,1.5-5,.9s-.8-2.3-.6-3.5c1.2-12.4,2.6-24.8,3.8-37.3.3-3.4,1.3-5,5.3-4.9,11.3.3,22.7.1,34,.1,2.5,0,5.1.1,6.3-2.8s2.3-1.3,3.4-1,.6,2,.6,3a8,8,0,0,1-.3,1.5c-1.2,4.6-.3,10.9-3.6,13.6s-9.3.6-14.1.7c-7.8.1-15.7.2-23.5,0-3.3-.1-4.2,1-4.4,4.2C202.6,515.1,201.8,521.1,201.1,527.8Z" transform="translate(-0.1 -0.1)"/>
	<path id="number-3" class="cls-14" d="M689.6,816.5c5.8,1,10.3,2.2,14.4,4.5,7.6,4.3,11.8,10.8,11.7,19.5S711.8,856.1,704,860c-12.8,6.4-26.2,6.7-39.7,1.9a14.9,14.9,0,0,1-5.7-3.9c-3.5-3.7-4-10.1-1.2-13.8s8.5-4.9,12.7-3,6,5.8,4.7,11.8,1.3,8.3,6.9,7.7a10.9,10.9,0,0,0,9.3-6.6,35.5,35.5,0,0,0,.8-27.7c-2.2-6-7.3-7.5-13.4-7.6-2.1,0-6.3,2.3-6.3-1.9s4.1-1.8,6.3-2c6.7-.5,10.1-2.9,11.8-9.4a34.7,34.7,0,0,0-.3-17.8c-1.1-4.1-3.9-6.5-8.3-6.5s-6.7,2.6-5.4,7.1.7,9.4-3.4,11.5-10.9,1.1-13.7-2.6-2.3-9.5,1.3-13.3,9.7-5.8,15.3-6.5c8.9-1.1,17.7-.6,25.9,3.3,6.4,3.1,11,7.7,11.3,15.2s-4,12.4-10.1,16C699,814.2,694.8,815.1,689.6,816.5Z" transform="translate(-0.1 -0.1)"/>
	<path id="number-2" class="cls-14" d="M825.7,561h39c4.3,0,7.5-1.9,8.8-6,.6-2.1,1.4-3.4,3.7-2.8s.9,2.8.8,4.1c-.5,5.5-1.5,10.9-2,16.3-.2,2.9-1.4,3.6-4.1,3.6-17.4-.1-34.9-.2-52.4,0-3,0-3.7-1.1-3.4-3.8a31.7,31.7,0,0,1,10-21.2c5.9-5.4,11.9-10.6,17.9-15.9,8.6-7.7,13.3-16.9,11.9-28.7-.5-4.4-1.6-8.6-5.3-11.4a8.4,8.4,0,0,0-10.3-.4c-2.7,1.8-1.5,4.3-.8,6.7,1.9,5.8.8,10.6-3.1,13a10.7,10.7,0,0,1-12.2-.1c-3.5-2.4-4.7-8.7-2.8-13.8a13.2,13.2,0,0,1,7.9-7.8c12.6-5.1,25.4-5.4,37.8,0s15,20,7.6,31c-3.3,5-7.9,8.6-12.9,11.6-9,5.4-18.2,10.5-27.1,15.9C831,553.4,827.3,555.7,825.7,561Z" transform="translate(-0.1 -0.1)"/>
	<path class="cls-15" d="M535.9,357.3c97.9-.1,177.3,79.4,177.2,177.4s-79.3,177-177,177.1S358.8,632.3,358.9,534.3,438.2,357.3,535.9,357.3Z" transform="translate(-0.1 -0.1)"/>
	<path id="number-6" class="cls-16" d="M381.9,228.8a39,39,0,0,0-8.7.5c-17.9,3-27.4,16.2-29.4,30.1h.4a25.3,25.3,0,0,1,20.4-9.8c15,0,25.6,10.8,25.6,27.4s-10.6,29.8-28.2,29.8-29.9-14-29.9-36.1c0-16.6,6-29.8,14.3-38.1s16.4-11.3,27.1-12.6a57.5,57.5,0,0,1,8.4-.6Zm-3.3,48.8c0-12.1-6.9-19.4-17.5-19.4a18.8,18.8,0,0,0-16.4,10.4,9.9,9.9,0,0,0-1.3,5.1c.3,14,6.7,24.3,18.6,24.3C371.9,298,378.6,289.8,378.6,277.6Z" transform="translate(-0.1 -0.1)"/>
	<path id="number-4" class="cls-16" d="M385.1,852V829.6H346.9v-7.3l36.7-52.5h12.1v51.1h11.5v8.7H395.7V852Zm0-31.1V793.4c0-4.3.2-8.6.4-12.9h-.4c-2.5,4.9-4.5,8.4-6.8,12.2l-20.2,27.9v.3Z" transform="translate(-0.1 -0.1)"/>
</svg>